# Blender 4.3.0
# www.blender.org
mtllib film_cassette.mtl
o film_cassette
v -0.029996 -0.000000 -0.119982
v 0.029996 -0.000000 -0.119982
v -0.029996 -0.023407 -0.117677
v 0.029996 -0.023407 -0.117677
v -0.029996 -0.045915 -0.110849
v 0.029996 -0.045915 -0.110849
v -0.029996 -0.066659 -0.099762
v 0.029996 -0.066659 -0.099762
v -0.029996 -0.084840 -0.084840
v 0.029996 -0.084840 -0.084840
v -0.029996 -0.099762 -0.066659
v 0.029996 -0.099762 -0.066659
v -0.029996 -0.110849 -0.045915
v 0.029996 -0.110849 -0.045915
v -0.029996 -0.117677 -0.023407
v 0.029996 -0.117677 -0.023407
v -0.029996 -0.119982 0.000000
v 0.029996 -0.119982 0.000000
v -0.029996 -0.117677 0.023407
v 0.029996 -0.117677 0.023407
v -0.029996 -0.110849 0.045915
v 0.029996 -0.110849 0.045915
v -0.029996 -0.099762 0.066659
v 0.029996 -0.099762 0.066659
v -0.029996 -0.084840 0.084840
v 0.029996 -0.084840 0.084840
v -0.029996 -0.066659 0.099762
v 0.029996 -0.066659 0.099762
v -0.029996 -0.045915 0.110849
v 0.029996 -0.045915 0.110849
v -0.029996 -0.023407 0.117677
v 0.029996 -0.023407 0.117677
v -0.029996 0.000000 0.119982
v 0.029996 0.000000 0.119982
v -0.029996 0.023407 0.117677
v 0.029996 0.023407 0.117677
v -0.029996 0.045915 0.110849
v 0.029996 0.045915 0.110849
v -0.029996 0.066659 0.099762
v 0.029996 0.066659 0.099762
v -0.029996 0.084840 0.084840
v 0.029996 0.084840 0.084840
v -0.029996 0.099762 0.066659
v 0.029996 0.099762 0.066659
v -0.029996 0.110849 0.045915
v 0.029996 0.110849 0.045915
v -0.029996 0.117677 0.023407
v 0.029996 0.117677 0.023407
v -0.029996 0.119982 -0.000000
v 0.029996 0.119982 -0.000000
v -0.029996 0.117677 -0.023407
v 0.029996 0.117677 -0.023407
v -0.029996 0.110849 -0.045915
v 0.029996 0.110849 -0.045915
v -0.029996 0.099762 -0.066659
v 0.029996 0.099762 -0.066659
v -0.029996 0.084840 -0.084840
v 0.029996 0.084840 -0.084840
v -0.029996 0.066659 -0.099762
v 0.029996 0.066659 -0.099762
v -0.029996 0.045915 -0.110849
v 0.029996 0.045915 -0.110849
v -0.029996 0.023407 -0.117677
v 0.029996 0.023407 -0.117677
v -0.029996 0.004639 -0.039886
v 0.029996 -0.004639 -0.039886
v -0.029996 -0.010978 -0.038625
v 0.029996 -0.019552 -0.035074
v -0.029996 -0.024921 -0.031487
v 0.029996 -0.031487 -0.024921
v -0.029996 -0.035074 -0.019552
v 0.029996 -0.038625 -0.010978
v -0.029996 -0.039886 -0.004639
v 0.029996 -0.039886 0.004639
v -0.029996 -0.038625 0.010978
v 0.029996 -0.035074 0.019552
v -0.029996 -0.031487 0.024921
v 0.029996 -0.024921 0.031487
v -0.029996 -0.019552 0.035074
v 0.029996 -0.010978 0.038625
v -0.029996 -0.004639 0.039886
v 0.029996 0.004639 0.039886
v -0.029996 0.010978 0.038625
v 0.029996 0.019552 0.035074
v -0.029996 0.024921 0.031487
v 0.029996 0.031487 0.024921
v -0.029996 0.035074 0.019552
v 0.029996 0.038625 0.010978
v -0.029996 0.039886 0.004639
v 0.029996 0.039886 -0.004639
v -0.029996 0.038625 -0.010978
v 0.029996 0.035074 -0.019552
v -0.029996 0.031487 -0.024921
v 0.029996 0.024921 -0.031487
v -0.029996 0.019552 -0.035074
v 0.029996 0.010978 -0.038625
v -0.029996 0.049840 0.023292
v -0.029996 0.086988 0.047720
v -0.029996 0.089795 0.043234
v -0.029996 0.082985 0.048133
v -0.029996 0.054687 0.033738
v -0.029996 0.051260 0.029657
v 0.029996 0.051260 0.029657
v 0.029996 0.054687 0.033738
v 0.029996 0.089795 0.043234
v 0.029996 0.086988 0.047720
v 0.029996 0.082985 0.048133
v 0.029996 0.049840 0.023292
v 0.029996 0.099351 0.007365
v -0.029996 0.049840 -0.023292
v -0.029996 0.100118 0.003829
v 0.029996 0.100118 -0.003829
v -0.029996 0.099351 -0.007366
v 0.029996 0.049840 -0.023292
v -0.029996 0.089795 -0.043234
v 0.029996 0.089795 -0.043234
v -0.029996 0.051259 -0.029657
v -0.029996 0.054687 -0.033738
v -0.029996 0.086988 -0.047720
v -0.029996 0.082985 -0.048133
v 0.029996 0.086988 -0.047720
v 0.029996 0.082985 -0.048133
v 0.029996 0.052396 -0.031691
v -0.029996 -0.084820 0.051474
v -0.029996 -0.083177 0.047801
v -0.029996 -0.082339 0.056148
v -0.029996 -0.053643 0.029531
v 0.029996 -0.084820 0.051474
v 0.029996 -0.056562 0.030492
v 0.029996 -0.083177 0.047801
v 0.029996 -0.082339 0.056148
v 0.029996 -0.045091 0.031517
v 0.029996 -0.051313 0.029564
v -0.029996 -0.045091 0.031517
v -0.029996 -0.056054 0.082358
v 0.029996 -0.056054 0.082358
v -0.029996 -0.004749 0.054808
v 0.029996 -0.004749 0.054808
v -0.029996 -0.046638 0.088678
v 0.029996 -0.047323 0.088433
v -0.029996 -0.007456 0.099382
v 0.029996 -0.007456 0.099382
v -0.029996 -0.002168 0.099194
v -0.029996 0.000192 0.095934
v -0.029996 0.000054 0.059220
v 0.029996 -0.002168 0.099194
v 0.029996 0.000054 0.059220
v 0.029996 0.000192 0.095934
v -0.029996 0.001874 0.064230
v 0.029996 0.001874 0.064230
v -0.029996 -0.004749 -0.054808
v -0.029996 -0.007456 -0.099382
v -0.029996 -0.002168 -0.099194
v -0.029996 0.000192 -0.095934
v -0.029996 0.000054 -0.059220
v 0.029996 -0.007456 -0.099382
v 0.029996 -0.002168 -0.099194
v 0.029996 0.000192 -0.095934
v 0.029996 0.000054 -0.059220
v 0.029996 -0.004749 -0.054808
v -0.029996 -0.047221 -0.088496
v 0.029996 -0.046743 -0.088619
v 0.029996 -0.056054 -0.082358
v -0.029996 -0.045091 -0.031517
v -0.029996 -0.056054 -0.082358
v 0.029996 -0.045091 -0.031517
v -0.029996 -0.082339 -0.056148
v 0.029996 -0.082339 -0.056148
v -0.029996 -0.084820 -0.051474
v -0.029996 -0.056562 -0.030492
v -0.029996 -0.083177 -0.047801
v -0.029996 -0.051313 -0.029564
v 0.029996 -0.084820 -0.051474
v 0.029996 -0.083177 -0.047801
v 0.029996 -0.053643 -0.029531
v 0.029996 0.001874 -0.064230
v -0.029996 0.001874 -0.064230
vn 0.0087 0.1150 0.9933
vn -0.0087 0.2739 0.9617
vn 0.0124 0.0805 0.9967
vn 0.0087 0.4863 0.8737
vn -0.0087 0.6211 0.7836
vn 0.0124 0.4557 0.8900
vn 0.0087 0.7836 0.6211
vn -0.0087 0.8737 0.4863
vn 0.0124 0.7616 0.6479
vn 0.0087 0.9617 0.2739
vn -0.0087 0.9933 0.1150
vn 0.0124 0.9516 0.3071
vn 0.0087 0.9933 -0.1150
vn -0.0087 0.9617 -0.2739
vn 0.0124 0.9967 -0.0805
vn 0.0087 0.8737 -0.4863
vn -0.0087 0.7836 -0.6211
vn 0.0124 0.8900 -0.4557
vn 0.0087 0.6211 -0.7836
vn -0.0087 0.4863 -0.8737
vn 0.0124 0.6479 -0.7616
vn 0.0087 0.2739 -0.9617
vn -0.0087 0.1150 -0.9933
vn 0.0124 0.3071 -0.9516
vn 0.0087 -0.1150 -0.9933
vn -0.0087 -0.2739 -0.9617
vn 0.0124 -0.0805 -0.9967
vn 0.0087 -0.4863 -0.8737
vn -0.0087 -0.6211 -0.7836
vn 0.0124 -0.4557 -0.8900
vn 0.0087 -0.7836 -0.6211
vn -0.0087 -0.8737 -0.4863
vn 0.0124 -0.7616 -0.6479
vn 0.0087 -0.9617 -0.2739
vn -0.0087 -0.9933 -0.1150
vn 0.0124 -0.9516 -0.3071
vn 0.0087 -0.9933 0.1150
vn -0.0087 -0.9617 0.2739
vn 0.0124 -0.9967 0.0805
vn 0.0087 -0.8737 0.4863
vn -0.0087 -0.7836 0.6211
vn 0.0124 -0.8900 0.4557
vn 0.0087 -0.6211 0.7836
vn -0.0087 -0.4863 0.8737
vn 0.0124 -0.6479 0.7616
vn 0.0087 -0.2739 0.9617
vn -0.0087 -0.1150 0.9933
vn 0.0124 -0.3071 0.9516
vn -1.0000 -0.0000 -0.0000
vn 1.0000 -0.0000 -0.0000
vn -0.0073 0.1741 0.9847
vn 0.0087 -0.9976 0.0684
vn -0.0000 -0.2903 -0.9569
vn -0.0000 -0.4714 -0.8819
vn -0.0000 -0.6344 -0.7730
vn -0.0000 -0.7730 -0.6344
vn -0.0000 -0.8819 -0.4714
vn -0.0000 -0.9569 -0.2903
vn -0.0000 -0.9952 -0.0980
vn -0.0000 -0.9952 0.0980
vn -0.0000 -0.9569 0.2903
vn -0.0000 -0.8819 0.4714
vn -0.0000 -0.7730 0.6344
vn -0.0000 -0.6344 0.7730
vn -0.0000 -0.4714 0.8819
vn -0.0000 -0.2903 0.9569
vn -0.0000 -0.0980 0.9952
vn -0.0000 0.0980 0.9952
vn -0.0000 0.2903 0.9569
vn -0.0000 0.4714 0.8819
vn -0.0000 0.6344 0.7730
vn -0.0000 0.7730 0.6344
vn -0.0000 0.8819 0.4714
vn -0.0000 0.9569 0.2903
vn -0.0000 0.9952 0.0980
vn -0.0000 0.9952 -0.0980
vn -0.0000 0.9569 -0.2903
vn -0.0000 0.8819 -0.4714
vn -0.0000 0.7730 -0.6344
vn -0.0000 0.6344 -0.7730
vn -0.0000 0.4714 -0.8819
vn -0.0000 0.2903 -0.9569
vn -0.0000 0.0980 -0.9952
vn -0.0124 0.3071 0.9516
vn -0.0124 0.6479 0.7616
vn -0.0124 0.8900 0.4557
vn -0.0124 0.9967 0.0805
vn -0.0124 0.9516 -0.3071
vn -0.0124 0.7616 -0.6479
vn -0.0124 0.4557 -0.8900
vn -0.0124 0.0805 -0.9967
vn -0.0124 -0.3071 -0.9516
vn -0.0124 -0.6479 -0.7616
vn -0.0124 -0.8900 -0.4557
vn -0.0124 -0.9967 -0.0805
vn -0.0124 -0.9516 0.3071
vn -0.0124 -0.7616 0.6479
vn -0.0124 -0.4557 0.8900
vn -0.0124 -0.0805 0.9967
vn -0.0000 -0.0980 -0.9952
vn -0.0000 -0.8477 -0.5305
vn -0.0087 -0.9976 -0.0684
vn -0.0000 -0.1028 -0.9947
vn -0.0000 0.7657 -0.6432
vn -0.0000 0.9760 -0.2177
vn -0.0000 0.9760 0.2177
vn -0.0000 -0.1028 0.9947
vn 0.0073 0.7657 0.6431
vn -0.0000 -0.8477 0.5305
vn -0.0000 -0.9663 -0.2574
vn -0.0026 -0.9674 0.2534
vn -0.0000 0.4534 -0.8913
vn -0.0000 1.0000 -0.0000
vn -0.0120 0.4734 0.8808
vn 0.0030 0.5573 -0.8303
vn -0.0000 0.8833 -0.4689
vn -0.0000 0.9128 0.4084
vn 0.0082 -0.2262 0.9740
vn -0.0000 -0.6766 0.7364
vn -0.0000 -0.9399 0.3416
vn -0.0000 -0.8101 -0.5863
vn -0.0000 -0.0356 -0.9994
vn -0.0000 0.7061 -0.7081
vn -0.0000 0.2635 -0.9647
vn -0.0000 0.5452 0.8383
vn -0.0000 -0.5000 0.8660
vn -0.0000 -0.9986 -0.0530
vn -0.0027 0.5580 0.8298
vn -0.0000 -0.0356 0.9994
vn -0.0000 -0.8101 0.5863
vn -0.0000 -0.9399 -0.3416
vn -0.0000 -0.6766 -0.7364
vn -0.0082 -0.2262 -0.9740
vn -0.0000 0.9128 -0.4084
vn 0.0073 0.1741 -0.9847
vn -0.0000 0.8833 0.4689
vn -0.0001 0.2640 0.9645
vn -0.0000 0.7061 0.7081
vn -0.0000 -0.9986 0.0530
vn -0.0000 -0.5000 -0.8660
vn -0.0000 0.5452 -0.8383
vn -0.0082 0.9566 0.2911
vn 0.0026 -0.9674 -0.2534
vn -0.0000 -0.9663 0.2574
vn -0.0000 0.4534 0.8913
vn -0.0000 0.5712 -0.8208
vn -0.0000 -0.2995 0.9541
vn -0.0009 0.2648 -0.9643
vn 0.0120 0.5260 0.8504
vn -0.0000 0.5706 0.8212
vn -0.0000 -0.2995 -0.9541
vn -0.0000 0.2642 0.9645
vn -0.0120 0.5260 -0.8504
vt 0.955946 0.500000
vt 0.981556 1.000000
vt 1.000000 0.500000
vt 0.893459 0.500000
vt 0.919047 1.000000
vt 0.830953 0.500000
vt 0.856541 1.000000
vt 0.768444 0.500000
vt 0.794053 1.000000
vt 0.705947 0.500000
vt 0.731556 1.000000
vt 0.643459 0.500000
vt 0.669047 1.000000
vt 0.580953 0.500000
vt 0.606541 1.000000
vt 0.518444 0.500000
vt 0.544054 1.000000
vt 0.455946 0.500000
vt 0.481556 1.000000
vt 0.393459 0.500000
vt 0.419047 1.000000
vt 0.330953 0.500000
vt 0.356541 1.000000
vt 0.268444 0.500000
vt 0.294053 1.000000
vt 0.205947 0.500000
vt 0.231556 1.000000
vt 0.143459 0.500000
vt 0.169047 1.000000
vt 0.080953 0.500000
vt 0.106541 1.000000
vt 0.018444 0.500000
vt 0.044054 1.000000
vt 0.921952 0.500000
vt 0.968750 0.500000
vt 0.937500 0.500000
vt 0.986262 0.500000
vt 0.847046 0.500000
vt 0.812500 1.000000
vt 0.781250 1.000000
vt 0.750000 0.500000
vt 0.781250 0.500000
vt 0.750000 1.000000
vt 0.718750 1.000000
vt 0.687500 0.500000
vt 0.718750 0.500000
vt 0.513738 1.000000
vt 0.652954 1.000000
vt 0.495377 0.500000
vt 0.499857 0.500000
vt 0.495377 1.000000
vt 0.468750 1.000000
vt 0.499675 1.000000
vt 0.437500 0.500000
vt 0.468750 0.500000
vt 0.437500 1.000000
vt 0.406250 1.000000
vt 0.375000 0.500000
vt 0.406250 0.500000
vt 0.375000 1.000000
vt 0.343750 1.000000
vt 0.337998 0.500000
vt 0.343750 0.500000
vt 0.333593 0.500000
vt 0.337998 1.000000
vt 0.319521 0.500000
vt 0.250000 0.500000
vt 0.238168 0.500000
vt 0.256085 0.500000
vt 0.180479 1.000000
vt 0.156250 0.500000
vt 0.162002 0.500000
vt 0.164564 1.000000
vt 0.156250 1.000000
vt 0.166407 1.000000
vt 0.125000 0.500000
vt 0.125000 1.000000
vt 0.093750 1.000000
vt 0.062500 0.500000
vt 0.093750 0.500000
vt 0.004623 1.000000
vt 0.000143 1.000000
vt 0.062500 1.000000
vt 0.031250 1.000000
vt 0.000000 0.000000
vt 0.937500 1.000000
vt 0.906250 1.000000
vt 0.906250 0.500000
vt 0.875000 1.000000
vt 0.875000 0.500000
vt 0.843750 1.000000
vt 0.843750 0.500000
vt 0.812500 0.500000
vt 0.687500 1.000000
vt 0.656250 1.000000
vt 0.656250 0.500000
vt 0.625000 1.000000
vt 0.625000 0.500000
vt 0.593750 1.000000
vt 0.593750 0.500000
vt 0.562500 1.000000
vt 0.562500 0.500000
vt 0.531250 1.000000
vt 0.531250 0.500000
vt 0.500000 1.000000
vt 0.500000 0.500000
vt 0.312500 1.000000
vt 0.312500 0.500000
vt 0.281250 1.000000
vt 0.281250 0.500000
vt 0.250000 1.000000
vt 0.218750 1.000000
vt 0.218750 0.500000
vt 0.187500 1.000000
vt 0.187500 0.500000
vt 0.031250 0.500000
vt 0.000000 1.000000
vt 0.000000 0.500000
vt 0.996453 0.500000
vt 1.000000 1.000000
vt 0.996453 1.000000
vt 0.986262 1.000000
vt 0.968750 1.000000
vt 0.922717 1.000000
vt 0.904854 1.000000
vt 0.847046 1.000000
vt 0.904854 0.500000
vt 0.845290 0.500000
vt 0.845290 1.000000
vt 0.828692 0.500000
vt 0.832962 0.500000
vt 0.831274 1.000000
vt 0.668726 0.500000
vt 0.654710 0.500000
vt 0.671308 1.000000
vt 0.667038 1.000000
vt 0.654710 1.000000
vt 0.595146 1.000000
vt 0.652954 0.500000
vt 0.577096 0.500000
vt 0.595146 0.500000
vt 0.578234 1.000000
vt 0.511972 0.500000
vt 0.513738 0.500000
vt 0.499675 0.500000
vt 0.503547 0.500000
vt 0.503547 1.000000
vt 0.321497 0.500000
vt 0.321497 1.000000
vt 0.261832 1.000000
vt 0.243915 1.000000
vt 0.180479 0.500000
vt 0.319521 1.000000
vt 0.178503 0.500000
vt 0.178503 1.000000
vt 0.004623 0.500000
vt 0.000325 0.500000
vt 0.988029 0.500000
vt 0.499857 1.000000
vt 0.333508 0.500000
vt 0.329831 0.500000
vt 0.329831 1.000000
vt 0.333508 1.000000
vt 0.333593 1.000000
vt 0.170169 0.500000
vt 0.166492 0.500000
vt 0.166407 0.500000
vt 0.170169 1.000000
vt 0.000325 1.000000
vt 0.988028 1.000000
vt 0.836723 0.500000
vt 0.833217 0.500000
vt 0.836723 1.000000
vt 0.832962 1.000000
vt 0.663277 0.500000
vt 0.667038 0.500000
vt 0.663277 1.000000
vt 0.666783 1.000000
vt 0.511972 1.000000
vt 0.000143 0.500000
s 1
usemtl blocks/black5
f 67/1/1 66/2/2 65/3/3
f 69/4/4 68/5/5 67/1/6
f 71/6/7 70/7/8 69/4/9
f 73/8/10 72/9/11 71/6/12
f 75/10/13 74/11/14 73/8/15
f 77/12/16 76/13/17 75/10/18
f 79/14/19 78/15/20 77/12/21
f 81/16/22 80/17/23 79/14/24
f 83/18/25 82/19/26 81/16/27
f 85/20/28 84/21/29 83/18/30
f 87/22/31 86/23/32 85/20/33
f 89/24/34 88/25/35 87/22/36
f 91/26/37 90/27/38 89/24/39
f 93/28/40 92/29/41 91/26/42
f 95/30/43 94/31/44 93/28/45
f 65/32/46 96/33/47 95/30/48
f 161/34/49 3/35/49 5/36/49
f 69/4/49 151/37/49 164/38/49
f 14/39/50 72/9/50 16/40/50
f 17/41/49 73/8/49 15/42/49
f 18/43/50 74/11/50 20/44/50
f 21/45/49 75/10/49 19/46/49
f 78/15/50 138/47/50 132/48/50
f 82/19/50 138/47/50 80/17/50
f 149/49/49 83/18/49 145/50/49
f 150/51/50 36/52/50 148/53/50
f 37/54/49 83/18/49 35/55/49
f 38/56/50 84/21/50 40/57/50
f 41/58/49 85/20/49 39/59/49
f 42/60/50 86/23/50 44/61/50
f 101/62/49 43/63/49 100/64/49
f 44/61/50 86/23/50 104/65/50
f 87/22/49 97/66/49 89/24/49
f 49/67/49 113/68/49 111/69/49
f 92/29/50 114/70/50 90/27/50
f 55/71/49 93/28/49 118/72/49
f 123/73/50 56/74/50 122/75/50
f 57/76/49 93/28/49 55/71/49
f 58/77/50 94/31/50 60/78/50
f 61/79/49 95/30/49 59/80/49
f 176/81/50 96/33/50 159/82/50
f 62/83/50 96/33/50 64/84/50
s 0
f 127/85/51 129/85/51 133/85/51
f 112/85/52 111/85/52 113/85/52
s 1
f 3/35/53 6/86/53 5/36/53
f 5/36/54 8/87/54 7/88/54
f 7/88/55 10/89/55 9/90/55
f 9/90/56 12/91/56 11/92/56
f 11/92/57 14/39/57 13/93/57
f 13/93/58 16/40/58 15/42/58
f 15/42/59 18/43/59 17/41/59
f 17/41/60 20/44/60 19/46/60
f 19/46/61 22/94/61 21/45/61
f 21/45/62 24/95/62 23/96/62
f 23/96/63 26/97/63 25/98/63
f 25/98/64 28/99/64 27/100/64
f 27/100/65 30/101/65 29/102/65
f 29/102/66 32/103/66 31/104/66
f 31/104/67 34/105/67 33/106/67
f 33/106/68 36/52/68 35/55/68
f 35/55/69 38/56/69 37/54/69
f 37/54/70 40/57/70 39/59/70
f 39/59/71 42/60/71 41/58/71
f 41/58/72 44/61/72 43/63/72
f 43/63/73 46/107/73 45/108/73
f 45/108/74 48/109/74 47/110/74
f 47/110/75 50/111/75 49/67/75
f 49/67/76 52/112/76 51/113/76
f 51/113/77 54/114/77 53/115/77
f 53/115/78 56/74/78 55/71/78
f 55/71/79 58/77/79 57/76/79
f 57/76/80 60/78/80 59/80/80
f 59/80/81 62/83/81 61/79/81
f 61/79/82 64/84/82 63/116/82
f 63/116/83 2/117/83 1/118/83
f 67/1/1 68/5/84 66/2/2
f 69/4/4 70/7/85 68/5/5
f 71/6/7 72/9/86 70/7/8
f 73/8/10 74/11/87 72/9/11
f 75/10/13 76/13/88 74/11/14
f 77/12/16 78/15/89 76/13/17
f 79/14/19 80/17/90 78/15/20
f 81/16/22 82/19/91 80/17/23
f 83/18/25 84/21/92 82/19/26
f 85/20/28 86/23/93 84/21/29
f 87/22/31 88/25/94 86/23/32
f 89/24/34 90/27/95 88/25/35
f 91/26/37 92/29/96 90/27/38
f 93/28/40 94/31/97 92/29/41
f 95/30/43 96/33/98 94/31/44
f 65/32/46 66/117/99 96/33/47
f 153/119/49 154/3/49 1/3/49
f 65/3/49 151/37/49 67/1/49
f 2/120/50 158/120/50 157/121/50
f 160/122/50 159/120/50 66/2/50
f 4/123/50 162/124/50 6/86/50
f 7/88/49 161/34/49 5/36/49
f 66/2/50 68/5/50 160/122/50
f 151/37/49 69/4/49 67/1/49
f 8/87/50 162/124/50 163/125/50
f 166/126/50 68/5/50 70/7/50
f 7/88/49 9/90/49 165/127/49
f 10/89/50 8/87/50 163/125/50
f 9/90/49 167/128/49 165/127/49
f 71/6/49 69/4/49 164/38/49
f 10/89/50 168/129/50 12/91/50
f 13/93/49 170/130/49 171/131/49
f 73/8/49 13/93/49 15/42/49
f 175/132/50 72/9/50 14/39/50
f 72/9/50 18/43/50 16/40/50
f 75/10/49 17/41/49 19/46/49
f 74/11/50 22/94/50 20/44/50
f 127/133/49 75/10/49 21/45/49
f 1/3/100 4/123/100 3/35/100
f 25/98/49 126/134/49 23/96/49
f 22/94/50 129/135/50 130/136/50
f 26/97/50 131/137/50 136/138/50
f 76/13/50 78/15/50 132/48/50
f 134/139/49 79/14/49 77/12/49
f 27/100/49 139/140/49 135/141/49
f 25/98/49 27/100/49 135/141/49
f 28/99/50 26/97/50 136/138/50
f 28/99/50 140/142/50 30/101/50
f 138/47/50 78/15/50 80/17/50
f 139/140/49 31/104/49 141/143/49
f 81/16/49 79/14/49 137/144/49
f 140/142/50 32/103/50 30/101/50
f 137/144/49 145/50/49 81/16/49
f 33/106/49 144/145/49 143/146/49
f 146/147/50 148/53/50 34/105/50
f 82/19/50 38/56/50 36/52/50
f 85/20/49 37/54/49 39/59/49
f 84/21/50 42/60/50 40/57/50
f 87/22/49 41/58/49 43/63/49
f 47/110/49 99/148/49 45/108/49
f 105/149/50 48/109/50 46/107/50
f 50/111/50 109/150/50 112/151/50
f 89/24/49 97/66/49 110/152/49
f 47/110/49 49/67/49 111/69/49
f 88/25/50 90/27/50 108/153/50
f 91/26/49 89/24/49 110/152/49
f 115/154/49 51/113/49 53/115/49
f 90/27/50 114/70/50 108/153/50
f 52/112/50 50/111/50 112/151/50
f 116/155/50 52/112/50 112/151/50
f 92/29/50 58/77/50 56/74/50
f 95/30/49 57/76/49 59/80/49
f 94/31/50 62/83/50 60/78/50
f 65/32/49 61/79/49 63/116/49
s 0
f 98/85/101 105/85/101 106/85/101
s 1
f 177/156/49 63/116/49 154/157/49
s 0
f 111/85/102 112/85/102 109/85/102
f 107/85/103 98/85/103 106/85/103
f 103/85/104 101/85/104 104/85/104
f 108/85/105 102/85/105 103/85/105
f 114/85/106 117/85/106 110/85/106
f 119/85/107 122/85/107 121/85/107
f 118/85/108 117/85/108 123/85/108
f 115/85/109 121/85/109 116/85/109
f 99/85/110 109/85/110 105/85/110
f 113/85/111 116/85/111 112/85/111
f 104/85/112 100/85/112 107/85/112
f 114/85/113 97/85/113 108/85/113
f 122/85/114 118/85/114 123/85/114
f 140/85/115 135/85/115 139/85/115
f 124/85/116 131/85/116 128/85/116
f 128/85/117 125/85/117 124/85/117
f 133/85/118 134/85/118 127/85/118
f 145/85/119 138/85/119 147/85/119
f 149/85/120 147/85/120 150/85/120
f 144/85/121 146/85/121 143/85/121
f 142/85/122 143/85/122 146/85/122
f 131/85/123 135/85/123 136/85/123
f 142/85/124 139/85/124 141/85/124
f 129/85/125 125/85/125 130/85/125
f 132/85/126 137/85/126 134/85/126
f 148/85/127 149/85/127 150/85/127
f 161/85/128 163/85/128 162/85/128
f 153/85/129 156/85/129 157/85/129
f 158/85/130 153/85/130 157/85/130
f 155/85/131 176/85/131 159/85/131
f 155/85/132 160/85/132 151/85/132
f 172/85/133 166/85/133 175/85/133
f 173/85/134 171/85/134 174/85/134
f 170/85/135 172/85/135 175/85/135
f 168/85/136 169/85/136 173/85/136
f 162/85/137 152/85/137 161/85/137
f 168/85/138 165/85/138 167/85/138
f 177/85/139 158/85/139 176/85/139
f 166/85/140 151/85/140 160/85/140
f 170/85/141 174/85/141 171/85/141
s 1
f 161/34/49 152/158/49 3/35/49
f 82/19/50 147/159/50 138/47/50
f 149/49/49 144/145/49 35/55/49
f 144/145/49 33/106/49 35/55/49
f 35/55/49 83/18/49 149/49/49
f 83/18/49 81/16/49 145/50/49
f 150/51/50 147/159/50 82/19/50
f 82/19/50 36/52/50 150/51/50
f 36/52/50 34/105/50 148/53/50
f 102/160/49 97/66/49 87/22/49
f 43/63/49 45/108/49 98/161/49
f 45/108/49 99/148/49 98/161/49
f 101/62/49 102/160/49 87/22/49
f 43/63/49 98/161/49 100/64/49
f 101/62/49 87/22/49 43/63/49
f 105/149/50 46/107/50 106/162/50
f 46/107/50 44/61/50 106/162/50
f 86/23/50 88/25/50 108/153/50
f 86/23/50 108/153/50 103/163/50
f 107/164/50 106/162/50 44/61/50
f 86/23/50 103/163/50 104/65/50
f 104/65/50 107/164/50 44/61/50
f 49/67/49 51/113/49 113/68/49
f 115/154/49 53/115/49 119/165/49
f 53/115/49 55/71/49 119/165/49
f 93/28/49 91/26/49 110/152/49
f 93/28/49 110/152/49 117/166/49
f 120/167/49 119/165/49 55/71/49
f 93/28/49 117/166/49 118/72/49
f 118/72/49 120/167/49 55/71/49
f 123/73/50 114/70/50 92/29/50
f 56/74/50 54/114/50 121/168/50
f 54/114/50 116/155/50 121/168/50
f 123/73/50 92/29/50 56/74/50
f 56/74/50 121/168/50 122/75/50
f 176/81/50 158/169/50 64/84/50
f 158/169/50 2/117/50 64/84/50
f 64/84/50 96/33/50 176/81/50
f 96/33/50 66/117/50 159/82/50
f 3/35/53 4/123/53 6/86/53
f 5/36/54 6/86/54 8/87/54
f 7/88/55 8/87/55 10/89/55
f 9/90/56 10/89/56 12/91/56
f 11/92/57 12/91/57 14/39/57
f 13/93/58 14/39/58 16/40/58
f 15/42/59 16/40/59 18/43/59
f 17/41/60 18/43/60 20/44/60
f 19/46/61 20/44/61 22/94/61
f 21/45/62 22/94/62 24/95/62
f 23/96/63 24/95/63 26/97/63
f 25/98/64 26/97/64 28/99/64
f 27/100/65 28/99/65 30/101/65
f 29/102/66 30/101/66 32/103/66
f 31/104/67 32/103/67 34/105/67
f 33/106/68 34/105/68 36/52/68
f 35/55/69 36/52/69 38/56/69
f 37/54/70 38/56/70 40/57/70
f 39/59/71 40/57/71 42/60/71
f 41/58/72 42/60/72 44/61/72
f 43/63/73 44/61/73 46/107/73
f 45/108/74 46/107/74 48/109/74
f 47/110/75 48/109/75 50/111/75
f 49/67/76 50/111/76 52/112/76
f 51/113/77 52/112/77 54/114/77
f 53/115/78 54/114/78 56/74/78
f 55/71/79 56/74/79 58/77/79
f 57/76/80 58/77/80 60/78/80
f 59/80/81 60/78/81 62/83/81
f 61/79/82 62/83/82 64/84/82
f 63/116/83 64/84/83 2/117/83
f 3/35/49 152/158/49 1/3/49
f 152/158/49 153/119/49 1/3/49
f 65/3/49 155/3/49 151/37/49
f 157/121/50 156/170/50 2/120/50
f 156/170/50 4/123/50 2/120/50
f 4/123/50 156/170/50 162/124/50
f 7/88/49 165/127/49 161/34/49
f 8/87/50 6/86/50 162/124/50
f 166/126/50 160/122/50 68/5/50
f 9/90/49 11/92/49 167/128/49
f 10/89/50 163/125/50 168/129/50
f 167/128/49 11/92/49 169/171/49
f 11/92/49 13/93/49 169/171/49
f 71/6/49 164/38/49 172/172/49
f 71/6/49 172/172/49 170/130/49
f 171/131/49 169/171/49 13/93/49
f 13/93/49 71/6/49 170/130/49
f 73/8/49 71/6/49 13/93/49
f 175/132/50 166/126/50 72/9/50
f 166/126/50 70/7/50 72/9/50
f 14/39/50 12/91/50 173/173/50
f 12/91/50 168/129/50 173/173/50
f 14/39/50 173/173/50 174/174/50
f 174/174/50 175/132/50 14/39/50
f 72/9/50 74/11/50 18/43/50
f 75/10/49 73/8/49 17/41/49
f 74/11/50 76/13/50 22/94/50
f 127/133/49 134/139/49 75/10/49
f 134/139/49 77/12/49 75/10/49
f 21/45/49 23/96/49 124/175/49
f 23/96/49 126/134/49 124/175/49
f 21/45/49 124/175/49 125/176/49
f 125/176/49 127/133/49 21/45/49
f 1/3/100 2/120/100 4/123/100
f 25/98/49 135/141/49 126/134/49
f 131/137/50 24/95/50 128/177/50
f 24/95/50 22/94/50 128/177/50
f 76/13/50 132/48/50 133/178/50
f 76/13/50 133/178/50 129/135/50
f 130/136/50 128/177/50 22/94/50
f 22/94/50 76/13/50 129/135/50
f 26/97/50 24/95/50 131/137/50
f 134/139/49 137/144/49 79/14/49
f 27/100/49 29/102/49 139/140/49
f 28/99/50 136/138/50 140/142/50
f 139/140/49 29/102/49 31/104/49
f 140/142/50 142/179/50 32/103/50
f 143/146/49 141/143/49 33/106/49
f 141/143/49 31/104/49 33/106/49
f 32/103/50 142/179/50 34/105/50
f 142/179/50 146/147/50 34/105/50
f 82/19/50 84/21/50 38/56/50
f 85/20/49 83/18/49 37/54/49
f 84/21/50 86/23/50 42/60/50
f 87/22/49 85/20/49 41/58/49
f 47/110/49 111/69/49 99/148/49
f 105/149/50 109/150/50 48/109/50
f 50/111/50 48/109/50 109/150/50
f 115/154/49 113/68/49 51/113/49
f 116/155/50 54/114/50 52/112/50
f 92/29/50 94/31/50 58/77/50
f 95/30/49 93/28/49 57/76/49
f 94/31/50 96/33/50 62/83/50
f 65/32/49 95/30/49 61/79/49
s 0
f 98/85/101 99/85/101 105/85/101
s 1
f 177/156/49 155/180/49 65/32/49
f 65/32/49 63/116/49 177/156/49
f 63/116/49 1/118/49 154/157/49
s 0
f 107/85/103 100/85/103 98/85/103
f 103/85/104 102/85/104 101/85/104
f 108/85/105 97/85/105 102/85/105
f 114/85/142 123/85/142 117/85/142
f 119/85/107 120/85/107 122/85/107
f 115/85/109 119/85/109 121/85/109
f 99/85/143 111/85/143 109/85/143
f 113/85/144 115/85/144 116/85/144
f 104/85/112 101/85/112 100/85/112
f 114/85/113 110/85/113 97/85/113
f 122/85/145 120/85/145 118/85/145
f 140/85/146 136/85/146 135/85/146
f 124/85/116 126/85/116 131/85/116
f 128/85/117 130/85/117 125/85/117
f 133/85/147 132/85/147 134/85/147
f 145/85/119 137/85/119 138/85/119
f 149/85/120 145/85/120 147/85/120
f 144/85/121 148/85/121 146/85/121
f 142/85/122 141/85/122 143/85/122
f 131/85/123 126/85/123 135/85/123
f 142/85/148 140/85/148 139/85/148
f 129/85/149 127/85/149 125/85/149
f 132/85/126 138/85/126 137/85/126
f 148/85/127 144/85/127 149/85/127
f 161/85/150 165/85/150 163/85/150
f 153/85/129 152/85/129 156/85/129
f 158/85/130 154/85/130 153/85/130
f 155/85/131 177/85/131 176/85/131
f 155/85/132 159/85/132 160/85/132
f 172/85/151 164/85/151 166/85/151
f 173/85/134 169/85/134 171/85/134
f 168/85/136 167/85/136 169/85/136
f 162/85/152 156/85/152 152/85/152
f 168/85/138 163/85/138 165/85/138
f 177/85/139 154/85/139 158/85/139
f 166/85/140 164/85/140 151/85/140
f 170/85/153 175/85/153 174/85/153
